<?xml version="1.0" encoding="UTF-8" standalone="no"?><svg xmlns="http://www.w3.org/2000/svg" xmlns:xlink="http://www.w3.org/1999/xlink" contentScriptType="application/ecmascript" contentStyleType="text/css" height="677px" preserveAspectRatio="none" style="width:905px;height:677px;background:#FFFFFF;" version="1.1" viewBox="0 0 905 677" width="905px" zoomAndPan="magnify"><defs><filter height="300%" id="fc45i3kbd3ll6" width="300%" x="-1" y="-1"><feGaussianBlur result="blurOut" stdDeviation="2.0"/><feColorMatrix in="blurOut" result="blurOut2" type="matrix" values="0 0 0 0 0 0 0 0 0 0 0 0 0 0 0 0 0 0 .4 0"/><feOffset dx="4.0" dy="4.0" in="blurOut2" result="blurOut3"/><feBlend in="SourceGraphic" in2="blurOut3" mode="normal"/></filter></defs><g><rect fill="#FFFFFF" filter="url(#fc45i3kbd3ll6)" height="179.6016" style="stroke:#000000;stroke-width:2.0;" width="391.5" x="10" y="250.9609"/><rect fill="#FFFFFF" filter="url(#fc45i3kbd3ll6)" height="90.2031" style="stroke:#000000;stroke-width:2.0;" width="371.5" x="20" y="333.3594"/><rect fill="#FFFFFF" height="43.9375" style="stroke:none;stroke-width:1.0;" width="371.5" x="20" y="379.625"/><line style="stroke:#A80036;stroke-width:1.0;stroke-dasharray:5.0,5.0;" x1="48" x2="48" y1="88.2969" y2="593.2266"/><line style="stroke:#A80036;stroke-width:1.0;stroke-dasharray:5.0,5.0;" x1="312.5" x2="312.5" y1="88.2969" y2="593.2266"/><line style="stroke:#A80036;stroke-width:1.0;stroke-dasharray:5.0,5.0;" x1="581" x2="581" y1="88.2969" y2="593.2266"/><line style="stroke:#A80036;stroke-width:1.0;stroke-dasharray:5.0,5.0;" x1="850" x2="850" y1="88.2969" y2="593.2266"/><text fill="#000000" font-family="sans-serif" font-size="14" lengthAdjust="spacing" textLength="31" x="30" y="84.9951">User</text><ellipse cx="48.5" cy="15" fill="#FEFECE" filter="url(#fc45i3kbd3ll6)" rx="8" ry="8" style="stroke:#A80036;stroke-width:2.0;"/><path d="M48.5,23 L48.5,50 M35.5,31 L61.5,31 M48.5,50 L35.5,65 M48.5,50 L61.5,65 " fill="none" filter="url(#fc45i3kbd3ll6)" style="stroke:#A80036;stroke-width:2.0;"/><text fill="#000000" font-family="sans-serif" font-size="14" lengthAdjust="spacing" textLength="31" x="30" y="605.2217">User</text><ellipse cx="48.5" cy="618.5234" fill="#FEFECE" filter="url(#fc45i3kbd3ll6)" rx="8" ry="8" style="stroke:#A80036;stroke-width:2.0;"/><path d="M48.5,626.5234 L48.5,653.5234 M35.5,634.5234 L61.5,634.5234 M48.5,653.5234 L35.5,668.5234 M48.5,653.5234 L61.5,668.5234 " fill="none" filter="url(#fc45i3kbd3ll6)" style="stroke:#A80036;stroke-width:2.0;"/><rect fill="#FEFECE" filter="url(#fc45i3kbd3ll6)" height="30.2969" style="stroke:#A80036;stroke-width:1.5;" width="134" x="243.5" y="53"/><text fill="#000000" font-family="sans-serif" font-size="14" lengthAdjust="spacing" textLength="120" x="250.5" y="72.9951">Web Application</text><rect fill="#FEFECE" filter="url(#fc45i3kbd3ll6)" height="30.2969" style="stroke:#A80036;stroke-width:1.5;" width="134" x="243.5" y="592.2266"/><text fill="#000000" font-family="sans-serif" font-size="14" lengthAdjust="spacing" textLength="120" x="250.5" y="612.2217">Web Application</text><rect fill="#FEFECE" filter="url(#fc45i3kbd3ll6)" height="30.2969" style="stroke:#A80036;stroke-width:1.5;" width="61" x="549" y="53"/><text fill="#000000" font-family="sans-serif" font-size="14" lengthAdjust="spacing" textLength="47" x="556" y="72.9951">Server</text><rect fill="#FEFECE" filter="url(#fc45i3kbd3ll6)" height="30.2969" style="stroke:#A80036;stroke-width:1.5;" width="61" x="549" y="592.2266"/><text fill="#000000" font-family="sans-serif" font-size="14" lengthAdjust="spacing" textLength="47" x="556" y="612.2217">Server</text><rect fill="#FEFECE" filter="url(#fc45i3kbd3ll6)" height="30.2969" style="stroke:#A80036;stroke-width:1.5;" width="85" x="806" y="53"/><text fill="#000000" font-family="sans-serif" font-size="14" lengthAdjust="spacing" textLength="71" x="813" y="72.9951">mongoDB</text><rect fill="#FEFECE" filter="url(#fc45i3kbd3ll6)" height="30.2969" style="stroke:#A80036;stroke-width:1.5;" width="85" x="806" y="592.2266"/><text fill="#000000" font-family="sans-serif" font-size="14" lengthAdjust="spacing" textLength="71" x="813" y="612.2217">mongoDB</text><polygon fill="#A80036" points="300.5,115.4297,310.5,119.4297,300.5,123.4297,304.5,119.4297" style="stroke:#A80036;stroke-width:1.0;"/><line style="stroke:#A80036;stroke-width:1.0;" x1="48.5" x2="306.5" y1="119.4297" y2="119.4297"/><text fill="#000000" font-family="sans-serif" font-size="13" font-weight="bold" lengthAdjust="spacing" textLength="31" x="55.5" y="114.3638">[01]</text><text fill="#000000" font-family="sans-serif" font-size="13" lengthAdjust="spacing" textLength="182" x="90.5" y="114.3638">Save diagram with name XY</text><polygon fill="#A80036" points="569.5,144.5625,579.5,148.5625,569.5,152.5625,573.5,148.5625" style="stroke:#A80036;stroke-width:1.0;"/><line style="stroke:#A80036;stroke-width:1.0;" x1="312.5" x2="575.5" y1="148.5625" y2="148.5625"/><text fill="#000000" font-family="sans-serif" font-size="13" font-weight="bold" lengthAdjust="spacing" textLength="31" x="319.5" y="143.4966">[02]</text><text fill="#000000" font-family="sans-serif" font-size="13" lengthAdjust="spacing" textLength="154" x="354.5" y="143.4966">GET: all diagram names</text><polygon fill="#A80036" points="838.5,173.6953,848.5,177.6953,838.5,181.6953,842.5,177.6953" style="stroke:#A80036;stroke-width:1.0;"/><line style="stroke:#A80036;stroke-width:1.0;" x1="581.5" x2="844.5" y1="177.6953" y2="177.6953"/><text fill="#000000" font-family="sans-serif" font-size="13" font-weight="bold" lengthAdjust="spacing" textLength="30" x="588.5" y="172.6294">[03]</text><text fill="#000000" font-family="sans-serif" font-size="13" lengthAdjust="spacing" textLength="154" x="622.5" y="172.6294">GET: all diagram names</text><polygon fill="#A80036" points="592.5,202.8281,582.5,206.8281,592.5,210.8281,588.5,206.8281" style="stroke:#A80036;stroke-width:1.0;"/><line style="stroke:#A80036;stroke-width:1.0;stroke-dasharray:2.0,2.0;" x1="586.5" x2="849.5" y1="206.8281" y2="206.8281"/><text fill="#000000" font-family="sans-serif" font-size="13" font-weight="bold" lengthAdjust="spacing" textLength="31" x="598.5" y="201.7622">[04]</text><text fill="#000000" font-family="sans-serif" font-size="13" lengthAdjust="spacing" textLength="210" x="633.5" y="201.7622">JSON Response: Diagram names</text><polygon fill="#A80036" points="323.5,231.9609,313.5,235.9609,323.5,239.9609,319.5,235.9609" style="stroke:#A80036;stroke-width:1.0;"/><line style="stroke:#A80036;stroke-width:1.0;stroke-dasharray:2.0,2.0;" x1="317.5" x2="580.5" y1="235.9609" y2="235.9609"/><text fill="#000000" font-family="sans-serif" font-size="13" font-weight="bold" lengthAdjust="spacing" textLength="31" x="329.5" y="230.895">[05]</text><text fill="#000000" font-family="sans-serif" font-size="13" lengthAdjust="spacing" textLength="210" x="364.5" y="230.895">JSON Response: Diagram names</text><path d="M10,250.9609 L76,250.9609 L76,257.9609 L66,267.9609 L10,267.9609 L10,250.9609 " fill="#EEEEEE" style="stroke:#000000;stroke-width:1.0;"/><rect fill="none" height="179.6016" style="stroke:#000000;stroke-width:2.0;" width="391.5" x="10" y="250.9609"/><text fill="#000000" font-family="sans-serif" font-size="13" font-weight="bold" lengthAdjust="spacing" textLength="21" x="25" y="264.0278">alt</text><text fill="#000000" font-family="sans-serif" font-size="11" font-weight="bold" lengthAdjust="spacing" textLength="148" x="91" y="263.1714">[XY in Diagram names]</text><polygon fill="#A80036" points="59.5,285.2266,49.5,289.2266,59.5,293.2266,55.5,289.2266" style="stroke:#A80036;stroke-width:1.0;"/><line style="stroke:#A80036;stroke-width:1.0;" x1="53.5" x2="311.5" y1="289.2266" y2="289.2266"/><text fill="#000000" font-family="sans-serif" font-size="13" font-weight="bold" lengthAdjust="spacing" textLength="31" x="65.5" y="284.1606">[06]</text><text fill="#000000" font-family="sans-serif" font-size="13" lengthAdjust="spacing" textLength="91" x="100.5" y="284.1606">Overwrite XY?</text><polygon fill="#A80036" points="300.5,314.3594,310.5,318.3594,300.5,322.3594,304.5,318.3594" style="stroke:#A80036;stroke-width:1.0;"/><line style="stroke:#A80036;stroke-width:1.0;stroke-dasharray:2.0,2.0;" x1="48.5" x2="306.5" y1="318.3594" y2="318.3594"/><text fill="#000000" font-family="sans-serif" font-size="13" font-weight="bold" lengthAdjust="spacing" textLength="31" x="55.5" y="313.2935">[07]</text><text fill="#000000" font-family="sans-serif" font-size="13" lengthAdjust="spacing" textLength="48" x="90.5" y="313.2935">Answer</text><path d="M20,333.3594 L86,333.3594 L86,340.3594 L76,350.3594 L20,350.3594 L20,333.3594 " fill="#EEEEEE" style="stroke:#000000;stroke-width:1.0;"/><rect fill="none" height="90.2031" style="stroke:#000000;stroke-width:2.0;" width="371.5" x="20" y="333.3594"/><text fill="#000000" font-family="sans-serif" font-size="13" font-weight="bold" lengthAdjust="spacing" textLength="21" x="35" y="346.4263">alt</text><text fill="#000000" font-family="sans-serif" font-size="11" font-weight="bold" lengthAdjust="spacing" textLength="27" x="101" y="345.5698">[no]</text><line style="stroke:#A80036;stroke-width:2.0;" x1="54.5" x2="64.5" y1="366.625" y2="376.625"/><line style="stroke:#A80036;stroke-width:2.0;" x1="54.5" x2="64.5" y1="376.625" y2="366.625"/><line style="stroke:#A80036;stroke-width:2.0;" x1="294.5" x2="304.5" y1="366.625" y2="376.625"/><line style="stroke:#A80036;stroke-width:2.0;" x1="294.5" x2="304.5" y1="376.625" y2="366.625"/><line style="stroke:#A80036;stroke-width:1.0;" x1="60.5" x2="299.5" y1="371.625" y2="371.625"/><text fill="#000000" font-family="sans-serif" font-size="13" font-weight="bold" lengthAdjust="spacing" textLength="31" x="65.5" y="366.5591">[08]</text><text fill="#000000" font-family="sans-serif" font-size="13" lengthAdjust="spacing" textLength="24" x="100.5" y="366.5591">end</text><line style="stroke:#000000;stroke-width:1.0;stroke-dasharray:2.0,2.0;" x1="20" x2="391.5" y1="380.625" y2="380.625"/><text fill="#000000" font-family="sans-serif" font-size="11" font-weight="bold" lengthAdjust="spacing" textLength="32" x="25" y="390.8354">[yes]</text><ellipse cx="48" cy="414.8125" rx="4" ry="4" style="stroke:#A80036;stroke-width:1.5;fill:none;"/><polygon fill="#A80036" points="65,411.5625,55,415.5625,65,419.5625,61,415.5625" style="stroke:#A80036;stroke-width:1.0;"/><ellipse cx="312" cy="414.8125" rx="4" ry="4" style="stroke:#A80036;stroke-width:1.5;fill:none;"/><polygon fill="#A80036" points="295,411.5625,305,415.5625,295,419.5625,299,415.5625" style="stroke:#A80036;stroke-width:1.0;"/><line style="stroke:#A80036;stroke-width:1.0;" x1="63" x2="301" y1="415.5625" y2="415.5625"/><text fill="#000000" font-family="sans-serif" font-size="13" font-weight="bold" lengthAdjust="spacing" textLength="31" x="65.5" y="410.4966">[09]</text><text fill="#000000" font-family="sans-serif" font-size="13" lengthAdjust="spacing" textLength="55" x="100.5" y="410.4966">continue</text><polygon fill="#A80036" points="569.5,454.6953,579.5,458.6953,569.5,462.6953,573.5,458.6953" style="stroke:#A80036;stroke-width:1.0;"/><line style="stroke:#A80036;stroke-width:1.0;" x1="312.5" x2="575.5" y1="458.6953" y2="458.6953"/><text fill="#000000" font-family="sans-serif" font-size="13" font-weight="bold" lengthAdjust="spacing" textLength="31" x="319.5" y="453.6294">[10]</text><text fill="#000000" font-family="sans-serif" font-size="13" lengthAdjust="spacing" textLength="117" x="354.5" y="453.6294">POST: diagram XY</text><polygon fill="#A80036" points="838.5,483.8281,848.5,487.8281,838.5,491.8281,842.5,487.8281" style="stroke:#A80036;stroke-width:1.0;"/><line style="stroke:#A80036;stroke-width:1.0;" x1="581.5" x2="844.5" y1="487.8281" y2="487.8281"/><text fill="#000000" font-family="sans-serif" font-size="13" font-weight="bold" lengthAdjust="spacing" textLength="30" x="588.5" y="482.7622">[11]</text><text fill="#000000" font-family="sans-serif" font-size="13" lengthAdjust="spacing" textLength="117" x="622.5" y="482.7622">POST: diagram XY</text><polygon fill="#A80036" points="592.5,512.9609,582.5,516.9609,592.5,520.9609,588.5,516.9609" style="stroke:#A80036;stroke-width:1.0;"/><line style="stroke:#A80036;stroke-width:1.0;stroke-dasharray:2.0,2.0;" x1="586.5" x2="849.5" y1="516.9609" y2="516.9609"/><text fill="#000000" font-family="sans-serif" font-size="13" font-weight="bold" lengthAdjust="spacing" textLength="30" x="598.5" y="511.895">[12]</text><text fill="#000000" font-family="sans-serif" font-size="13" lengthAdjust="spacing" textLength="119" x="632.5" y="511.895">Diagram XY saved</text><polygon fill="#A80036" points="323.5,542.0938,313.5,546.0938,323.5,550.0938,319.5,546.0938" style="stroke:#A80036;stroke-width:1.0;"/><line style="stroke:#A80036;stroke-width:1.0;stroke-dasharray:2.0,2.0;" x1="317.5" x2="580.5" y1="546.0938" y2="546.0938"/><text fill="#000000" font-family="sans-serif" font-size="13" font-weight="bold" lengthAdjust="spacing" textLength="29" x="329.5" y="541.0278">[13]</text><text fill="#000000" font-family="sans-serif" font-size="13" lengthAdjust="spacing" textLength="119" x="362.5" y="541.0278">Diagram XY saved</text><polygon fill="#A80036" points="59.5,571.2266,49.5,575.2266,59.5,579.2266,55.5,575.2266" style="stroke:#A80036;stroke-width:1.0;"/><line style="stroke:#A80036;stroke-width:1.0;stroke-dasharray:2.0,2.0;" x1="53.5" x2="311.5" y1="575.2266" y2="575.2266"/><text fill="#000000" font-family="sans-serif" font-size="13" font-weight="bold" lengthAdjust="spacing" textLength="30" x="65.5" y="570.1606">[14]</text><text fill="#000000" font-family="sans-serif" font-size="13" lengthAdjust="spacing" textLength="206" x="99.5" y="570.1606">Toast message: Diagram saved</text><!--MD5=[ddad9dd68c2df39432566941e438faf4]
@startuml
autonumber "<b>[00]"
actor User as u
participant "Web Application" as w
participant Server as s
participant mongoDB as m

u -> w: Save diagram with name XY
w -> s: GET: all diagram names
s -> m: GET: all diagram names
m - -> s: JSON Response: Diagram names
s - -> w: JSON Response: Diagram names
alt XY in Diagram names
  w -> u: Overwrite XY?
  u - -> w: Answer
  alt no
    w x<->x u: end
  else yes
    w o<->o u: continue
  end
end

w -> s: POST: diagram XY
s -> m: POST: diagram XY
m - -> s: Diagram XY saved
s - -> w: Diagram XY saved

w - -> u: Toast message: Diagram saved
@enduml

PlantUML version 1.2021.10beta2(Unknown compile time)
(GPL source distribution)
Java Runtime: Java(TM) SE Runtime Environment
JVM: Java HotSpot(TM) 64-Bit Server VM
Default Encoding: UTF-8
Language: en
Country: US
--></g></svg>