<?xml version="1.0" standalone="no"?>
<svg xmlns="http://www.w3.org/2000/svg" viewBox="0 0 79.754 36" width="79.754" height="36"><g fill="#403d31" color="#403d31" transform="translate(0 6) scale(0.4705883)"><svg width="44.0" height="51.0" x="0.0" y="0.0" viewBox="0 0 44 51"><path fill="currentColor" fill-rule="evenodd" d="M22 0L0 12.571v25.143l22 12.572 21.994-12.568.006-.01V12.571L22 0zM6.354 13.778L22 4.84l15.645 8.938-4.231 2.419L22 9.678l-11.411 6.52-4.235-2.42zm17.764 10.158v-8.21L31.3 19.83v8.208l-7.182-4.101zm-11.416-4.107l7.18-4.102v8.207l-7.18 4.103v-8.208zm11.416 19.57l11.415-6.522V19.826l4.233-2.42v17.89l-15.648 8.941v-4.838zM4.233 35.296v-17.89l4.233 2.42v13.049l11.416 6.524v4.838l-15.649-8.94zm10.583-3.63l7.182-4.104 7.183 4.104L22 35.768l-7.184-4.102z"></path></svg></g><path fill="#d9be6c" fill-rule="nonzero" d="M7.85 16.97L0.10 16.97Q0 16.97 0 16.85L0 16.85L0.02 0.36Q0.02 0.26 0.12 0.26L0.12 0.26L7.82 0.26Q7.92 0.26 7.92 0.38L7.92 0.38L7.92 3.07Q7.92 3.17 7.82 3.17L7.82 3.17L2.90 3.17L2.90 6.91L7.82 6.91Q7.92 6.91 7.92 7.01L7.92 7.01L7.94 9.72Q7.94 9.82 7.85 9.82L7.85 9.82L2.90 9.82L2.90 14.02L7.85 14.02Q7.94 14.02 7.94 14.14L7.94 14.14L7.94 16.87Q7.94 16.97 7.85 16.97L7.85 16.97ZM14.11 17.21L14.11 17.21Q12.79 17.21 11.72 16.55Q10.66 15.89 10.03 14.78Q9.41 13.68 9.41 12.31L9.41 12.31L9.43 4.82Q9.43 3.50 10.04 2.41Q10.66 1.32 11.72 0.66Q12.79 0 14.11 0L14.11 0Q15.43 0 16.49 0.65Q17.54 1.30 18.17 2.39Q18.79 3.48 18.79 4.82L18.79 4.82L18.79 5.93Q18.79 6.02 18.70 6.02L18.70 6.02L16.01 6.02Q15.91 6.02 15.91 5.93L15.91 5.93L15.91 4.82Q15.91 4.03 15.40 3.46Q14.88 2.88 14.11 2.88L14.11 2.88Q13.25 2.88 12.79 3.47Q12.34 4.06 12.34 4.82L12.34 4.82L12.34 12.31Q12.34 13.20 12.85 13.75Q13.37 14.30 14.11 14.30L14.11 14.30Q14.88 14.30 15.40 13.69Q15.91 13.08 15.91 12.31L15.91 12.31L15.91 11.21Q15.91 11.11 16.01 11.11L16.01 11.11L18.72 11.11Q18.82 11.11 18.82 11.21L18.82 11.21L18.82 12.31Q18.82 13.68 18.18 14.78Q17.54 15.89 16.49 16.55Q15.43 17.21 14.11 17.21ZM25.01 17.21L25.01 17.21Q23.71 17.21 22.64 16.55Q21.58 15.89 20.93 14.80Q20.28 13.70 20.28 12.38L20.28 12.38L20.30 4.78Q20.30 3.46 20.94 2.38Q21.58 1.30 22.66 0.65Q23.74 0 25.01 0L25.01 0Q26.30 0 27.36 0.65Q28.42 1.30 29.05 2.38Q29.69 3.46 29.69 4.78L29.69 4.78L29.71 12.38Q29.71 13.70 29.08 14.80Q28.44 15.89 27.37 16.55Q26.30 17.21 25.01 17.21ZM25.01 14.30L25.01 14.30Q25.73 14.30 26.27 13.72Q26.81 13.13 26.81 12.38L26.81 12.38L26.78 4.78Q26.78 3.98 26.28 3.43Q25.78 2.88 25.01 2.88L25.01 2.88Q24.26 2.88 23.74 3.42Q23.21 3.96 23.21 4.78L23.21 4.78L23.21 12.38Q23.21 13.18 23.74 13.74Q24.26 14.30 25.01 14.30ZM34.34 16.97L31.63 16.97Q31.54 16.97 31.54 16.85L31.54 16.85L31.58 0.36Q31.58 0.26 31.68 0.26L31.68 0.26L36.53 0.26Q37.82 0.26 38.92 0.90Q40.01 1.54 40.66 2.60Q41.30 3.67 41.30 5.02L41.30 5.02Q41.30 5.90 41.04 6.61Q40.78 7.32 40.42 7.81Q40.06 8.30 39.77 8.54L39.77 8.54Q41.06 9.98 41.06 11.93L41.06 11.93L41.09 16.85Q41.09 16.97 40.97 16.97L40.97 16.97L38.26 16.97Q38.16 16.97 38.16 16.90L38.16 16.90L38.16 11.93Q38.16 11.06 37.55 10.43Q36.94 9.79 36.05 9.79L36.05 9.79L34.46 9.79L34.44 16.85Q34.44 16.97 34.34 16.97L34.34 16.97ZM34.46 3.14L34.46 6.91L36.53 6.91Q37.27 6.91 37.85 6.36Q38.42 5.81 38.42 5.02L38.42 5.02Q38.42 4.25 37.86 3.70Q37.30 3.14 36.53 3.14L36.53 3.14L34.46 3.14ZM50.95 16.97L43.20 16.97Q43.10 16.97 43.10 16.85L43.10 16.85L43.13 0.36Q43.13 0.26 43.22 0.26L43.22 0.26L50.93 0.26Q51.02 0.26 51.02 0.38L51.02 0.38L51.02 3.07Q51.02 3.17 50.93 3.17L50.93 3.17L46.01 3.17L46.01 6.91L50.93 6.91Q51.02 6.91 51.02 7.01L51.02 7.01L51.05 9.72Q51.05 9.82 50.95 9.82L50.95 9.82L46.01 9.82L46.01 14.02L50.95 14.02Q51.05 14.02 51.05 14.14L51.05 14.14L51.05 16.87Q51.05 16.97 50.95 16.97L50.95 16.97Z" transform="translate(28.706, 9.516)"></path></svg>